<svg id="Capa_1" enable-background="new 0 0 512 512" viewBox="0 0 512 512" xmlns="http://www.w3.org/2000/svg"><g><path d="m271 251.66v114.275l98.965-57.137v-114.275z"/><path d="m157.035 168.542 98.965 57.138 98.965-57.138-98.965-57.138z"/><path d="m241 251.66-98.965-57.137v114.275l98.965 57.137z"/><path d="m451.726 85.954c-10.786 0-20.667 3.927-28.308 10.416l-166.917-96.37-167.519 96.717c-7.694-6.695-17.732-10.763-28.708-10.763-24.152 0-43.8 19.648-43.8 43.8 0 19.247 12.485 35.623 29.778 41.484v192.922l165.822 95.737c-.518 2.69-.799 5.463-.799 8.302 0 24.151 19.648 43.799 43.8 43.799 24.151 0 43.799-19.648 43.799-43.799 0-2.316-.184-4.59-.532-6.81l168.407-97.23v-193.26c16.774-6.144 28.777-22.269 28.777-41.145 0-24.151-19.649-43.8-43.8-43.8zm-15.023 260.86-152.963 88.313c-7.689-6.673-17.71-10.726-28.666-10.726-10.412 0-19.982 3.658-27.507 9.748l-151.268-87.335v-176.31c16.245-6.411 27.774-22.254 27.774-40.75 0-2.297-.18-4.552-.522-6.754l152.95-88.306 152.041 87.781c-.398 2.369-.616 4.798-.616 7.279 0 18.876 12.003 35.001 28.777 41.145z"/></g><g/><g/><g/><g/><g/><g/><g/><g/><g/><g/><g/><g/><g/><g/><g/></svg>