<svg xmlns="http://www.w3.org/2000/svg" version="1.1" xmlns:xlink="http://www.w3.org/1999/xlink" width="512" height="512" x="0" y="0" viewBox="0 0 48 48" style="enable-background:new 0 0 512 512" xml:space="preserve" class=""><g><path d="M25.764 12h-3.528a2.984 2.984 0 0 0-2.683 1.658l-.171.342h9.236l-.171-.342A2.983 2.983 0 0 0 25.764 12zM4.947 32.995A8.94 8.94 0 0 1 4 29v-8c0-.659.098-1.294.269-1.899A2.997 2.997 0 0 0 2 22v8a3 3 0 0 0 2.947 2.995zM43.731 19.101c.171.605.269 1.24.269 1.899v8a8.94 8.94 0 0 1-.947 3.995A3 3 0 0 0 46 30v-8a2.997 2.997 0 0 0-2.269-2.899zM37 16H11c-3.486 0-5 3.028-5 5v8c0 1.467.449 2.832 1.229 3.954C7.599 33.486 9.437 36 13 36h5.667c2.04 0 3.534-1.4 3.534-1.4 1.743-1.226 3.344-.192 3.599 0 0 0 1.433 1.4 3.534 1.4H35c3.718 0 7-2.999 7-7v-8c0-2.292-1.823-5-5-5zm-24.001 6.002h-2c-1.349 0-1.306-2 0-2h2c1.375.03 1.304 2 0 2z" fill="#ffffff" opacity="1" data-original="#000000"></path></g></svg>